<svg xmlns="http://www.w3.org/2000/svg" version="1.1" xmlns:xlink="http://www.w3.org/1999/xlink" xmlns:svgjs="http://svgjs.dev/svgjs" width="1000" height="1000" viewBox="0 0 1000 1000"><rect width="1000" height="1000" fill="#ffffff"></rect><g transform="matrix(0.7,0,0,0.7,149.57575757575756,316.4314255246025)"><svg viewBox="0 0 396 208" data-background-color="#fdfbe2" preserveAspectRatio="xMidYMid meet" height="525" width="1000" xmlns="http://www.w3.org/2000/svg" xmlns:xlink="http://www.w3.org/1999/xlink"><g id="tight-bounds" transform="matrix(1,0,0,1,0.2400000000000091,-0.1026843785505207)"><svg viewBox="0 0 395.52 208.20536875710104" height="208.20536875710104" width="395.52"><g><svg viewBox="0 0 395.52 208.20536875710104" height="208.20536875710104" width="395.52"><g><svg viewBox="0 0 395.52 208.20536875710104" height="208.20536875710104" width="395.52"><g><svg viewBox="0 0 395.52 208.20536875710104" height="208.20536875710104" width="395.52"><g><rect width="395.52" height="146.71468625284365" fill="none" stroke-width="9.018103199999999" stroke="#06283d" data-fill-palette-color="none" data-stroke-palette-color="tertiary"></rect><rect width="395.52" height="61.490682504257386" y="146.71468625284365" fill="#06283d" data-fill-palette-color="tertiary"></rect></g><g><svg viewBox="0 0 395.52 146.71468625284365" height="146.71468625284365" width="395.52"><g transform="matrix(1,0,0,1,23.607599999999998,23.60759999999999)"><svg width="348.3048" viewBox="2.25 -37.25 153.83999633789062 43.95000076293945" height="99.49948625284367" data-palette-color="#06283d"><path d="M27.75 5.95L27.75 5.95 4.55 5.95Q3.35 5.95 2.8 5.4 2.25 4.85 2.25 3.65L2.25 3.65 2.25-28.75Q2.25-29.4 2.43-29.85 2.6-30.3 2.95-30.6L2.95-30.6 9.4-36.05Q9.65-36.25 10.08-36.38 10.5-36.5 11-36.5L11-36.5 34.2-36.5Q35.4-36.5 35.95-35.95 36.5-35.4 36.5-34.2L36.5-34.2 36.5-28.35Q36.5-27.7 36.33-27.25 36.15-26.8 35.8-26.5L35.8-26.5 31.5-22.95Q32-22.7 32.23-22.2 32.45-21.7 32.45-20.9L32.45-20.9 32.45-15.55Q32.45-14.9 32.27-14.45 32.1-14 31.75-13.7L31.75-13.7 27.3-9.95 34.2-9.95Q35.4-9.95 35.95-9.4 36.5-8.85 36.5-7.65L36.5-7.65 36.5-1.8Q36.5-1.15 36.33-0.7 36.15-0.25 35.8 0.05L35.8 0.05 29.3 5.45Q29.1 5.65 28.68 5.8 28.25 5.95 27.75 5.95ZM11 0L34.2 0Q35.15 0 35.58-0.43 36-0.85 36-1.8L36-1.8 36-7.65Q36-8.6 35.58-9.03 35.15-9.45 34.2-9.45L34.2-9.45 20.4-9.45 20.4-13.75 30.15-13.75Q31.1-13.75 31.53-14.18 31.95-14.6 31.95-15.55L31.95-15.55 31.95-20.9Q31.95-21.85 31.53-22.28 31.1-22.7 30.15-22.7L30.15-22.7 20.4-22.7 20.4-26.55 34.2-26.55Q35.15-26.55 35.58-26.98 36-27.4 36-28.35L36-28.35 36-34.2Q36-35.15 35.58-35.58 35.15-36 34.2-36L34.2-36 11-36Q10.05-36 9.63-35.58 9.2-35.15 9.2-34.2L9.2-34.2 9.2-1.8Q9.2-0.85 9.63-0.43 10.05 0 11 0L11 0ZM15.15-5L31.5-5 31.5-4.5 14.65-4.5 14.65-31.5 31.5-31.5 31.5-31 15.15-31 15.15-18.45 27.45-18.45 27.45-17.95 15.15-17.95 15.15-5ZM50 5.95L50 5.95 42.25 5.95Q41.05 5.95 40.5 5.4 39.95 4.85 39.95 3.65L39.95 3.65 39.95-28.75Q39.95-29.4 40.12-29.85 40.3-30.3 40.65-30.6L40.65-30.6 47.1-36.05Q47.35-36.25 47.77-36.38 48.2-36.5 48.7-36.5L48.7-36.5 64-36.5Q67.55-36.5 69.95-35.75 72.35-35 73.75-33.65 75.15-32.3 75.72-30.4 76.3-28.5 76.3-26.25L76.3-26.25 76.3-19.85Q76.3-17.45 75.62-15.48 74.95-13.5 73.3-12.1L73.3-12.1 66.8-6.7Q65.55-5.65 63.57-4.98 61.6-4.3 58.75-4.2L58.75-4.2 58.75-1.8Q58.75-1.15 58.57-0.7 58.4-0.25 58.05 0.05L58.05 0.05 51.55 5.45Q51.35 5.65 50.92 5.8 50.5 5.95 50 5.95ZM48.7 0L56.45 0Q57.4 0 57.82-0.43 58.25-0.85 58.25-1.8L58.25-1.8 58.25-10.1 64-10.1Q70.8-10.1 73.3-12.8 75.8-15.5 75.8-19.85L75.8-19.85 75.8-26.25Q75.8-30.6 73.3-33.3 70.8-36 64-36L64-36 48.7-36Q47.75-36 47.32-35.58 46.9-35.15 46.9-34.2L46.9-34.2 46.9-1.8Q46.9-0.85 47.32-0.43 47.75 0 48.7 0L48.7 0ZM63.3-14.35L63.3-14.35 53-14.35 53-4.5 52.5-4.5 52.5-31.5 63.3-31.5Q65.65-31.5 67.12-30.98 68.6-30.45 69.4-29.55 70.2-28.65 70.5-27.4 70.8-26.15 70.8-24.7L70.8-24.7 70.8-21Q70.8-19.55 70.5-18.32 70.2-17.1 69.4-16.23 68.6-15.35 67.12-14.85 65.65-14.35 63.3-14.35ZM53-31L53-14.85 63.3-14.85Q65.5-14.85 66.87-15.3 68.25-15.75 69-16.57 69.75-17.4 70.02-18.53 70.3-19.65 70.3-21L70.3-21 70.3-24.7Q70.3-26.05 70.02-27.2 69.75-28.35 69-29.2 68.25-30.05 66.87-30.53 65.5-31 63.3-31L63.3-31 53-31ZM58.15-19.1L58.15-26.65 62.65-26.65Q64.1-26.65 64.55-25.9 65-25.15 65-24.2L65-24.2 65-21.55Q65-20.6 64.55-19.85 64.1-19.1 62.65-19.1L62.65-19.1 58.15-19.1ZM89.1 5.95L89.1 5.95 81.35 5.95Q80.15 5.95 79.6 5.4 79.05 4.85 79.05 3.65L79.05 3.65 79.05-28.75Q79.05-29.4 79.22-29.85 79.4-30.3 79.75-30.6L79.75-30.6 86.2-36.05Q86.45-36.25 86.87-36.38 87.3-36.5 87.8-36.5L87.8-36.5 103.1-36.5Q106.65-36.5 109.05-35.75 111.45-35 112.85-33.65 114.25-32.3 114.82-30.4 115.4-28.5 115.4-26.25L115.4-26.25 115.4-19.85Q115.4-17.45 114.72-15.48 114.05-13.5 112.4-12.1L112.4-12.1 105.9-6.7Q104.65-5.65 102.67-4.98 100.7-4.3 97.85-4.2L97.85-4.2 97.85-1.8Q97.85-1.15 97.67-0.7 97.5-0.25 97.15 0.05L97.15 0.05 90.65 5.45Q90.45 5.65 90.02 5.8 89.6 5.95 89.1 5.95ZM87.8 0L95.55 0Q96.5 0 96.92-0.43 97.35-0.85 97.35-1.8L97.35-1.8 97.35-10.1 103.1-10.1Q109.9-10.1 112.4-12.8 114.9-15.5 114.9-19.85L114.9-19.85 114.9-26.25Q114.9-30.6 112.4-33.3 109.9-36 103.1-36L103.1-36 87.8-36Q86.85-36 86.42-35.58 86-35.15 86-34.2L86-34.2 86-1.8Q86-0.85 86.42-0.43 86.85 0 87.8 0L87.8 0ZM102.4-14.35L102.4-14.35 92.1-14.35 92.1-4.5 91.6-4.5 91.6-31.5 102.4-31.5Q104.75-31.5 106.22-30.98 107.7-30.45 108.5-29.55 109.3-28.65 109.6-27.4 109.9-26.15 109.9-24.7L109.9-24.7 109.9-21Q109.9-19.55 109.6-18.32 109.3-17.1 108.5-16.23 107.7-15.35 106.22-14.85 104.75-14.35 102.4-14.35ZM92.1-31L92.1-14.85 102.4-14.85Q104.6-14.85 105.97-15.3 107.35-15.75 108.1-16.57 108.85-17.4 109.12-18.53 109.4-19.65 109.4-21L109.4-21 109.4-24.7Q109.4-26.05 109.12-27.2 108.85-28.35 108.1-29.2 107.35-30.05 105.97-30.53 104.6-31 102.4-31L102.4-31 92.1-31ZM97.25-19.1L97.25-26.65 101.75-26.65Q103.2-26.65 103.65-25.9 104.1-25.15 104.1-24.2L104.1-24.2 104.1-21.55Q104.1-20.6 103.65-19.85 103.2-19.1 101.75-19.1L101.75-19.1 97.25-19.1ZM153.09-1.85L146.64 3.55Q144.89 5.05 141.74 5.88 138.59 6.7 133.64 6.7L133.64 6.7Q128.74 6.7 125.62 5.68 122.49 4.65 120.72 2.95 118.94 1.25 118.27-0.95 117.59-3.15 117.59-5.5L117.59-5.5 117.59-21.05Q117.59-23.35 118.24-25.33 118.89-27.3 120.59-28.7L120.59-28.7 127.09-34.1Q128.84-35.6 131.97-36.43 135.09-37.25 140.09-37.25L140.09-37.25Q144.99-37.25 148.12-36.45 151.24-35.65 153.02-34.23 154.79-32.8 155.44-30.83 156.09-28.85 156.09-26.5L156.09-26.5 156.09-9.45Q156.09-7.15 155.44-5.2 154.79-3.25 153.09-1.85L153.09-1.85ZM155.59-9.45L155.59-9.45 155.59-26.5Q155.59-28.8 154.92-30.68 154.24-32.55 152.52-33.9 150.79-35.25 147.77-36 144.74-36.75 140.09-36.75L140.09-36.75Q135.44-36.75 132.39-36 129.34-35.25 127.62-33.9 125.89-32.55 125.22-30.68 124.54-28.8 124.54-26.5L124.54-26.5 124.54-9.45Q124.54-7.15 125.22-5.28 125.89-3.4 127.62-2.08 129.34-0.75 132.39 0 135.44 0.75 140.09 0.75L140.09 0.75Q144.74 0.75 147.77 0 150.79-0.75 152.52-2.08 154.24-3.4 154.92-5.28 155.59-7.15 155.59-9.45ZM150.14-25.35L150.14-10.6Q150.14-7.6 147.99-5.73 145.84-3.85 139.99-3.85L139.99-3.85Q134.14-3.85 132.04-5.73 129.94-7.6 129.94-10.6L129.94-10.6 129.94-25.35Q129.94-28.35 132.04-30.23 134.14-32.1 139.99-32.1L139.99-32.1Q145.84-32.1 147.99-30.23 150.14-28.35 150.14-25.35L150.14-25.35ZM130.44-25.35L130.44-10.6Q130.44-7.8 132.44-6.08 134.44-4.35 139.99-4.35L139.99-4.35Q145.54-4.35 147.59-6.08 149.64-7.8 149.64-10.6L149.64-10.6 149.64-25.35Q149.64-28.15 147.59-29.88 145.54-31.6 139.99-31.6L139.99-31.6Q134.44-31.6 132.44-29.88 130.44-28.15 130.44-25.35L130.44-25.35ZM135.89-11.25L135.89-11.25 135.89-24.7Q135.89-25.65 136.64-26.33 137.39-27 140.09-27L140.09-27Q142.79-27 143.54-26.33 144.29-25.65 144.29-24.7L144.29-24.7 144.29-11.25Q144.29-10.25 143.54-9.58 142.79-8.9 140.09-8.9L140.09-8.9Q137.39-8.9 136.64-9.58 135.89-10.25 135.89-11.25ZM136.39-20.7L136.39-11.25Q136.39-10.75 136.59-10.38 136.79-10 137.34-9.75L137.34-9.75 137.34-19.25Q137.34-19.75 137.14-20.13 136.94-20.5 136.39-20.7L136.39-20.7Z" opacity="1" transform="matrix(1,0,0,1,0,0)" fill="#000000" class="undefined-text-0" data-fill-palette-color="primary" id="text-0"></path></svg></g></svg></g></svg></g></svg></g></svg></g><defs></defs></svg><rect width="395.52" height="208.20536875710104" fill="none" stroke="none" visibility="hidden"></rect></g></svg></g></svg>